<svg xmlns="http://www.w3.org/2000/svg" viewBox="0 0 454.03 456.7"><defs><style>.cls-1{fill:#fff;}</style></defs><title>Asset 1</title><g id="Layer_2" data-name="Layer 2"><g id="Layer_1-2" data-name="Layer 1"><path class="cls-1" d="M15.46,235.33c3.85,0,7.09-.14,10.31.11.74.06,1.63,1.37,2,2.29,4.3,10.58,8.06,21.39,12.85,31.73C46.41,282,55,292.69,64.17,303.05,74.1,314.3,85.64,323.46,98,331.76c15.77,10.59,33.23,17.09,51.68,20.74a149,149,0,0,0,28.91,3.11c9.76,0,19.55-1.72,29.26-3.17,3.86-.57,7.54-2.43,11.36-4.15-4-.35-7.91-.79-11.87-1-23.75-1.47-46.83-6.09-68.81-15.33-27.07-11.4-49.53-28.8-66.92-52.6-8.61-11.79-16-24.23-20.94-38A161.64,161.64,0,0,1,41.34,194a148,148,0,0,1,9.15-58.91A150.9,150.9,0,0,1,80.76,85.86c2.68-3,5.63-5.67,8.37-8.59,1.59-1.69,2.78-1.35,4.32.14,6.65,6.41,6.71,6.4.58,13.46-9,10.33-17.06,21.21-22.88,33.73a157.38,157.38,0,0,0-13,44.32c-3.48,24.43.15,48,8.93,70.76a141.65,141.65,0,0,0,36,53.13,168,168,0,0,0,32.34,23.39,132.94,132.94,0,0,0,14.92,7c-5.19-5.7-10.63-11.19-15.52-17.14q-13.07-15.87-25.56-32.22a117.31,117.31,0,0,1-19.25-38,155.34,155.34,0,0,1-5.89-54.29c.92-15.22,3.41-30.27,8.59-44.77A178.82,178.82,0,0,1,148,57.82a162.22,162.22,0,0,1,66.65-33.17l.32-.08c5.83-1.33,7.34.21,6,6.13a6,6,0,0,0-.47,2.2c.9,4.65-2.09,5.75-5.66,6.82-25.79,7.72-47.62,22-66.42,41A152,152,0,0,0,122,116.26a160.92,160.92,0,0,0-13.73,34.2A170.12,170.12,0,0,0,104,173.69c-1.44,11.75-1.72,23.57.45,35.3.61,3.25,1.63,6.43,2.46,9.64l1,0c1.29-8.35,2.74-16.69,3.86-25.07,2.55-19.18,10.59-36.48,18.24-53.89,7.16-16.29,17.81-30.26,30.34-42.67C175.74,81.8,193.46,69.75,214,62.31c9.34-3.39,18.82-6.86,28.54-8.7,15.06-2.84,30.4-3.5,45.56-.17,9.08,2,18,4.57,27,7A34.52,34.52,0,0,1,319,62c2.47,1,3.61,2.66,3.8,5.44.25,3.64,1.08,7.23,1.78,11.62-1.89-.44-3.47-.72-5-1.17-8.83-2.61-17.52-5.8-26.48-7.76-18.39-4-36.77-3-55.11,1.13-24.73,5.55-46.08,17.55-64.88,34.1-9.81,8.63-19.32,17.81-24.64,31.12,1.22-.86,2-1.39,2.77-2a147.11,147.11,0,0,1,44.5-23.76c20.44-6.57,41.46-7.59,62.68-4.6,14.84,2.09,29.45,5.12,43.42,10.73,27,10.84,50.57,26.52,69.7,48.67,11.27,13,21.13,27,27.64,43,7.63,18.83,12.88,38.21,12.6,58.72a158.91,158.91,0,0,1-17.1,70.8,148.23,148.23,0,0,1-29.78,39.6c-2.08,2-3.58,2.16-5.62-.16-6.59-7.48-5.48-6.6-.25-12.64,13.67-15.79,24-33.44,30-53.49,5.39-18,8.83-36.3,6.73-55.13A148.39,148.39,0,0,0,379.92,204c-14.56-28-36.25-49.14-63.29-65-3.2-1.88-6.68-3.28-10.64-5.2,15.55,16.57,28.69,33.79,35.6,55.69-7.53,0-14.46.1-21.38-.11-.94,0-2.19-1.46-2.69-2.53a98.48,98.48,0,0,0-40.25-44.42c-62.29-36.4-141.34,4.11-148.39,76-5.33,54.29,34.57,102.81,88.78,108a99,99,0,0,0,107.91-85.64c.14-1.07.18-2.16.3-3.73h-3.25c-15,0-30,0-44.94,0a15.69,15.69,0,0,0-5,1c-16.51,5.88-27.89,17-34.15,33.42-3.73,9.81-7.81,19.48-11.95,29.73-.45-1.32-.77-2.38-1.17-3.4-4.71-12.1-9.25-24.27-14.24-36.26a35.12,35.12,0,0,0-19.71-19.35c-11.61-4.77-23.4-9.11-35.12-13.62-1-.38-2-.66-4-1.29,1.79-.65,2.82-1,3.81-1.38,12.47-5,25-9.72,37.38-14.95a32.47,32.47,0,0,0,17.73-17.81c5-12,9.48-24.17,14.17-36.28.35-.91.57-1.86.89-2.78.06-.15.32-.24.75-.54,1.22,3.38,2.24,6.75,3.62,10,4.28,9.94,8.53,19.91,13.12,29.71,3.72,7.92,10,13.38,17.62,17.67,8.76,4.95,17.65,7.71,28,7.4,22.24-.65,44.5-.2,66.76-.19,4.38,0,5.16.56,6.17,4.93,4.75,20.52,6.71,41.31,4.4,62.27-2,18.25-6.18,36.07-13.69,53a173.55,173.55,0,0,1-51.79,66.95A156.4,156.4,0,0,1,236.18,436c-1,.22-2.1.33-3.7.57,0-3.46-.44-6.76.2-9.83.29-1.4,2.54-2.75,4.18-3.46,6.47-2.79,13.18-5,19.55-8a158.06,158.06,0,0,0,34.72-22.7,165.08,165.08,0,0,0,42.35-55A163.15,163.15,0,0,0,347,293.89a129,129,0,0,0,1.1-39.81c-.25-1.81-.84-3.58-1.27-5.36l-1.24-.12a21,21,0,0,0-1.45,3.91c-3.78,24.39-12.64,47-23.37,69.07-7.17,14.74-15.93,28.41-27.07,40.35-13.85,14.83-29.59,27.46-48.13,36.07-22.58,10.48-46.35,16.11-71.29,14.19-30.72-2.36-58.75-12.37-82.8-32.17-5-4.12-9.56-8.79-14.4-13.13-2-1.84-2-3.68-.44-5.68,1.33-1.69,2.75-3.32,4.37-5.28,2.59,2.06,5.06,3.92,7.43,5.92a147.06,147.06,0,0,0,62.69,31.4,135.55,135.55,0,0,0,52.91,2c24.11-4,45.57-14,64.56-29.43a141.48,141.48,0,0,0,33.18-38c1.52-2.57,2.85-5.27,4.68-8.69-5.42,4-10.06,7.61-14.91,10.91s-9.77,6-14.56,9.18c-3.7,2.44-7.2,5.2-10.87,7.7C246,360.58,224.12,370,200,373.1c-35.55,4.64-68.85-2.72-100.14-20A166.48,166.48,0,0,1,64,326.94,157.79,157.79,0,0,1,30.35,280.3,203.78,203.78,0,0,1,15.46,235.33Z"/><path class="cls-1" d="M234.93,18c0-4.12-.09-8.24,0-12.35S236,.45,240.24.6c5.18.19,10.37.67,15.51,1.34a214.57,214.57,0,0,1,39.49,8.85c16.9,5.59,33.28,12.32,48.23,22.14,2.6,1.71,2.48,2.37,0,4.11-6,4.21-12.35,8.07-15.83,15-1,2-2.36,2.22-4.44.92-16.69-10.49-34.71-17.71-54.36-19.72-8.53-.87-17.31-.18-25.89.7-7.87.82-8.08,1.12-8-6.78,0-3,0-6.07,0-9.11Z"/><path class="cls-1" d="M217.85,429.44v27c-7.86-.85-15.18-1.33-22.38-2.49a254.38,254.38,0,0,1-57.59-16.29A203.84,203.84,0,0,1,92,410.91c-5.48-4.23-10.8-8.68-16.21-13-4.37-3.49-4.43-4-.6-8,1-1.1,2.08-2.21,3.15-3.3,3.15-3.21,3.45-3.32,6.81-.17a174.58,174.58,0,0,0,38.18,27.4c15.54,8.17,31.55,15.38,49.2,17.61a130.16,130.16,0,0,0,35.64-.71C211.32,430.24,214.52,429.87,217.85,429.44Z"/><path class="cls-1" d="M442.19,231c2.82,0,5.64,0,8.46,0,2.57,0,3.55,1.45,3.35,3.72-2.67,31.45-8,62.2-22.28,90.88a263.78,263.78,0,0,1-35.2,53.18c-1.84,2.17-3.27,2.47-5.22.28a51.1,51.1,0,0,0-4.89-4.76c-2.44-2.12-2.44-3.89-.38-6.56,7.25-9.44,14.66-18.82,21.17-28.78,14.76-22.6,23.9-47.35,25.4-74.47.46-8.17-.45-16.44-1.19-24.62-.8-8.78-1-8.76,7.53-8.93,1.08,0,2.17,0,3.25,0Z"/><path class="cls-1" d="M70.73,83c-6.14,7.54-12,14.22-17.28,21.32A166.64,166.64,0,0,0,24,170.09a115.87,115.87,0,0,0-1.06,45.45c0,.11,0,.22,0,.33.76,6.19.56,6.44-5.67,6.48-4.1,0-8.21,0-12.31,0-4.5-.07-4.88-.3-4.52-4.92.63-8.31,1.2-16.64,2.42-24.87,3.46-23.14,9.84-45.44,20.5-66.38C31.11,110.87,40,96.31,51.71,83.63c2.35-2.54,4.74-5,7.07-7.61,1.44-1.6,2.68-1.79,4.33-.11C65.53,78.39,68.17,80.64,70.73,83Z"/><path class="cls-1" d="M231.9,456.7V441.53c3.91-.45,7.7-1.12,11.52-1.29,23.78-1.07,46.25-7.44,67.85-17A214.39,214.39,0,0,0,369.8,385c5.34-4.9,5.43-4.93,10.23.67,5.26,6.13,5.55,5.08-.36,10.56a223.78,223.78,0,0,1-59.57,39.58,233.59,233.59,0,0,1-60.45,18C250.64,455.25,241.48,455.73,231.9,456.7Z"/><path class="cls-1" d="M221.56,7.11c-.1,7.76-.56,8.21-8.25,8.59-24.5,1.2-47.77,7.3-70.2,17.15A218.37,218.37,0,0,0,94.73,61.64c-4.16,3.3-8.16,6.8-12.11,10.35-2.36,2.13-4.36,2-6.38-.32-.28-.32-.61-.61-.92-.92-7.67-7.74-7.24-5.94.24-12.68,20.83-18.78,44.72-32.52,70.72-42.9A225.64,225.64,0,0,1,195.36,2a161.2,161.2,0,0,1,19.35-2C220.61-.17,221.46.86,221.56,7.11Z"/><path class="cls-1" d="M15.08,235.52c1.37,53.44,20.79,99,57.05,138.06l-8.41,9.19c-1.49,1.62-2.69.8-3.77-.49-5.46-6.58-11.15-13-16.3-19.8A211.37,211.37,0,0,1,6,280.52c-3-13.47-4.06-27.38-5.9-41.11-.32-2.36.6-4,3.44-3.91C7.26,235.59,11,235.52,15.08,235.52Z"/><path class="cls-1" d="M388.68,51.39c8.6-.14,16.75-.24,23.15,6.83,7.69,8.51,15.86,16.6,23.49,25.17,1.51,1.7,1.93,4.73,2.11,7.2.74,10.25,1.27,20.51,1.68,30.78.09,2.26-.62,4.55-1,6.82l-1.11.41c-4.89-5.81-10-11.47-14.55-17.52-1.14-1.52-1.2-4.41-.78-6.47,1.39-6.75-.64-11.9-6.18-15.84-1.85-1.32-3.62-2.76-5.36-4.21a21.24,21.24,0,0,0-14.1-4.94c-2.38,0-4.73-.41-4.1-3.47,1.66-8,0-15.47-2.87-22.83A15,15,0,0,1,388.68,51.39Z"/><path class="cls-1" d="M341.87,99.21c4.08.88,7.69,1.81,11.35,2.42a43.78,43.78,0,0,0,8.39.67c4.61-.12,5.41.4,7.22,4.73a103.89,103.89,0,0,0,6.41,13.77c4.06,6.77,10.65,9.6,18.37,9.84,5.72.18,9.09,3.5,11.32,8.28a87.57,87.57,0,0,1,3.26,8.47,28.12,28.12,0,0,1,.69,4.19c-7.21-2-13.69-4-20.26-5.61-4.82-1.16-9.75-1.87-14.67-2.56a11.06,11.06,0,0,1-7.19-3.69c-5.69-6.23-11.85-12-17.62-18.17a18.9,18.9,0,0,1-4.08-6.68,121,121,0,0,1-2.89-12.31A32.73,32.73,0,0,1,341.87,99.21Z"/><path class="cls-1" d="M357.29,91.46c-12.23,0-22-10.13-22.19-22.55-.17-11,10.16-25.46,23.67-25,12.78.47,22.44,10.16,22.4,23.41C381.13,81.39,371.11,91.51,357.29,91.46Zm12.18-22.91c.09-6.75-4.64-11.91-11-12-6.82-.06-12.08,4.84-12.11,11.3,0,6.17,5.47,11.48,12,11.61S369.38,75.24,369.47,68.55Z"/><path class="cls-1" d="M410.58,112.28c23.76,31.65,35.6,67,37.14,106.47h-8.81c-.42-3.7-.78-7.24-1.22-10.76-2.23-17.83-6.21-35.21-13.22-51.82-5.28-12.51-11.29-24.63-19.21-35.7-1.87-2.63-1.31-4.29,1.26-5.74C407.74,114,408.93,113.29,410.58,112.28Z"/></g></g></svg>